<svg width="44" height="38" viewBox="0 0 44 38" fill="none" xmlns="http://www.w3.org/2000/svg">
<rect width="44" height="38" rx="4" fill="#FFE7CC"/>
<path d="M16.176 24H13.968L10.08 12.8H12.096L15.072 21.776L18.064 12.8H20.064L16.176 24ZM21.2606 24V12.8H23.1006V24H21.2606ZM25.3388 12.8H29.4668C30.5228 12.8 31.4028 13.152 32.1068 13.856C32.8214 14.56 33.1788 15.4347 33.1788 16.48C33.1788 17.5147 32.8214 18.3893 32.1068 19.104C31.4028 19.808 30.5228 20.16 29.4668 20.16H27.1788V24H25.3388V12.8ZM27.1788 18.432H29.4668C30.0108 18.432 30.4588 18.2507 30.8108 17.888C31.1628 17.5147 31.3388 17.0453 31.3388 16.48C31.3388 15.9147 31.1628 15.4507 30.8108 15.088C30.4588 14.7147 30.0108 14.528 29.4668 14.528H27.1788V18.432Z" fill="#FF8800"/>
</svg>
