<svg width="48" height="48" viewBox="0 0 48 48" fill="none" xmlns="http://www.w3.org/2000/svg">
<rect width="48" height="48" rx="24" fill="#FFAC4D"/>
<path d="M18.969 24.5306L26.469 32.0306C26.5386 32.1002 26.6214 32.1555 26.7124 32.1932C26.8035 32.2309 26.901 32.2503 26.9996 32.2503C27.0981 32.2503 27.1957 32.2309 27.2868 32.1932C27.3778 32.1555 27.4605 32.1002 27.5302 32.0306C27.5999 31.9609 27.6552 31.8781 27.6929 31.7871C27.7306 31.6961 27.75 31.5985 27.75 31.4999C27.75 31.4014 27.7306 31.3038 27.6929 31.2128C27.6552 31.1217 27.5999 31.039 27.5302 30.9693L20.5599 23.9999L27.5302 17.0306C27.6709 16.8898 27.75 16.699 27.75 16.4999C27.75 16.3009 27.6709 16.11 27.5302 15.9693C27.3895 15.8286 27.1986 15.7495 26.9996 15.7495C26.8006 15.7495 26.6097 15.8286 26.469 15.9693L18.969 23.4693C18.8992 23.539 18.8439 23.6217 18.8062 23.7127C18.7684 23.8038 18.749 23.9014 18.749 23.9999C18.749 24.0985 18.7684 24.1961 18.8062 24.2871C18.8439 24.3782 18.8992 24.4609 18.969 24.5306Z" fill="white"/>
</svg>
