<svg width="48" height="48" viewBox="0 0 48 48" fill="none" xmlns="http://www.w3.org/2000/svg">
<rect width="48" height="48" rx="24" fill="#FF941A"/>
<path d="M29.031 24.5306L21.531 32.0306C21.4614 32.1002 21.3786 32.1555 21.2876 32.1932C21.1965 32.2309 21.099 32.2503 21.0004 32.2503C20.9019 32.2503 20.8043 32.2309 20.7132 32.1932C20.6222 32.1555 20.5395 32.1002 20.4698 32.0306C20.4001 31.9609 20.3448 31.8781 20.3071 31.7871C20.2694 31.6961 20.25 31.5985 20.25 31.4999C20.25 31.4014 20.2694 31.3038 20.3071 31.2128C20.3448 31.1217 20.4001 31.039 20.4698 30.9693L27.4401 23.9999L20.4698 17.0306C20.3291 16.8898 20.25 16.699 20.25 16.4999C20.25 16.3009 20.3291 16.11 20.4698 15.9693C20.6105 15.8286 20.8014 15.7495 21.0004 15.7495C21.1994 15.7495 21.3903 15.8286 21.531 15.9693L29.031 23.4693C29.1008 23.539 29.1561 23.6217 29.1938 23.7127C29.2316 23.8038 29.251 23.9014 29.251 23.9999C29.251 24.0985 29.2316 24.1961 29.1938 24.2871C29.1561 24.3782 29.1008 24.4609 29.031 24.5306Z" fill="white"/>
</svg>
