<svg width="21" height="21" viewBox="0 0 21 21" fill="none" xmlns="http://www.w3.org/2000/svg">
<path d="M20.9297 7.62075C20.8389 7.3408 20.6677 7.09375 20.4375 6.91038C20.2073 6.72701 19.9282 6.61542 19.635 6.5895L14.0672 6.1095L11.8847 0.9195C11.7711 0.647172 11.5794 0.414551 11.3338 0.250929C11.0883 0.0873076 10.7998 0 10.5047 0C10.2096 0 9.92114 0.0873076 9.67557 0.250929C9.43 0.414551 9.23834 0.647172 9.12471 0.9195L6.94877 6.1095L1.3744 6.59231C1.08005 6.61705 0.799566 6.72813 0.568107 6.91164C0.336647 7.09515 0.164519 7.34291 0.073307 7.62385C-0.0179045 7.9048 -0.0241389 8.20642 0.0553858 8.49089C0.13491 8.77536 0.296654 9.03002 0.520333 9.22294L4.7494 12.9186L3.4819 18.4067C3.41487 18.6939 3.434 18.9945 3.53688 19.2709C3.63976 19.5472 3.82183 19.7872 4.06033 19.9606C4.29883 20.1341 4.58317 20.2334 4.87781 20.2462C5.17245 20.2589 5.46431 20.1845 5.7169 20.0323L10.4981 17.1261L15.2897 20.0323C15.5423 20.1845 15.8342 20.2589 16.1288 20.2462C16.4234 20.2334 16.7078 20.1341 16.9463 19.9606C17.1848 19.7872 17.3668 19.5472 17.4697 19.2709C17.5726 18.9945 17.5917 18.6939 17.5247 18.4067L16.2581 12.9129L20.4863 9.22294C20.7099 9.02936 20.8713 8.77397 20.9502 8.48889C21.0291 8.20382 21.022 7.90178 20.9297 7.62075ZM19.5028 8.0895L15.2747 11.7795C15.0689 11.9585 14.9158 12.1902 14.8319 12.4497C14.748 12.7092 14.7364 12.9867 14.7985 13.2523L16.0688 18.7498L11.281 15.8436C11.0474 15.7013 10.7791 15.6261 10.5056 15.6261C10.2321 15.6261 9.96392 15.7013 9.73033 15.8436L4.94908 18.7498L6.21096 13.2561C6.27297 12.9905 6.2614 12.713 6.17749 12.4535C6.09357 12.194 5.94049 11.9623 5.73471 11.7833L1.50471 8.09513C1.50437 8.09232 1.50437 8.08949 1.50471 8.08669L7.07721 7.60481C7.34927 7.58083 7.60963 7.48303 7.83019 7.32194C8.05074 7.16086 8.22314 6.94262 8.32877 6.69075L10.5047 1.50731L12.6797 6.69075C12.7853 6.94262 12.9577 7.16086 13.1783 7.32194C13.3989 7.48303 13.6592 7.58083 13.9313 7.60481L19.5047 8.08669C19.5047 8.08669 19.5047 8.09231 19.5047 8.09325L19.5028 8.0895Z" fill="#FF8800"/>
</svg>
